<svg xmlns="http://www.w3.org/2000/svg" xmlns:xlink="http://www.w3.org/1999/xlink" version="1.2" baseProfile="tiny" xml:space="preserve" width="400" height="80" style=""><rect id="backgroundrect" width="100%" height="100%" x="0" y="0" fill="none" stroke="none" class="" style=""/>































<g class="currentLayer" style=""><title>Layer 1</title><rect x="7.727294921875" y="15.13637924194336" fill="#BBE1FA" width="176" height="41" id="svg_1" class=""/><rect x="163.727294921875" y="15.13637924194336" fill="#3282B8" width="201" height="41" id="svg_2" class=""/><circle fill="#3282B8" cx="164.227294921875" cy="35.63637924194336" r="20.5" id="svg_3" class=""/><circle fill="#3282B8" cx="365.227294921875" cy="35.63637924194336" r="20.5" id="svg_4" class=""/><g id="svg_5" class="">
	<path fill="#1B262C" d="M74.13729492187497,16.031279144287055 c3.18,-0.54 6.3100000000000005,-0.3100000000000002 9.39,0.6800000000000007 c3.08,0.99 5.76,2.6500000000000004 8.03,4.96 c1.86,1.86 3.3,4.02 4.3100000000000005,6.48 c1.01,2.46 1.5,5.01 1.46,7.66 c0,2.11 -0.34000000000000036,4.17 -1.02,6.17 s-1.6400000000000001,3.85 -2.88,5.55 c-2.03,2.73 -4.59,4.8 -7.69,6.23 s-6.32,2.04 -9.67,1.83 c-1.7400000000000002,-0.12000000000000002 -3.43,-0.4700000000000002 -5.08,-1.05 c-1.6500000000000008,-0.5800000000000004 -3.19,-1.34 -4.62,-2.29 c-1.4300000000000002,-0.9500000000000004 -2.72,-2.07 -3.88,-3.35 c-1.1600000000000001,-1.28 -2.13,-2.71 -2.91,-4.28 c-0.7400000000000004,-1.53 -1.29,-3.12 -1.6400000000000001,-4.77 c-0.3500000000000002,-1.6500000000000008 -0.4900000000000002,-3.3200000000000003 -0.4,-4.99 c0.08000000000000006,-1.6700000000000008 0.3600000000000002,-3.33 0.8400000000000004,-4.96 c0.4700000000000002,-1.6300000000000003 1.17,-3.17 2.08,-4.62 c0.2900000000000002,-0.54 0.6400000000000005,-1.08 1.05,-1.61 h0.06000000000000004 c1.53,-2.07 3.39,-3.74 5.58,-5.02 C69.31729492187503,17.351279144287105 71.65729492187495,16.49127914428709 74.13729492187497,16.031279144287055 zM87.52729492187495,42.63127914428708 c0.8700000000000004,-1.28 1.48,-2.67 1.83,-4.15 c0.3500000000000002,-1.49 0.4200000000000002,-3 0.2200000000000001,-4.53 c-0.25,-1.53 -0.7000000000000004,-2.87 -1.36,-4.03 c-0.8300000000000004,-1.49 -1.9,-2.77 -3.22,-3.84 c-1.32,-1.07 -2.81,-1.82 -4.46,-2.23 c-1.61,-0.45 -3.27,-0.56 -4.96,-0.3100000000000002 c-1.7000000000000002,0.25 -3.27,0.8300000000000004 -4.71,1.7400000000000002 c-1.86,1.2 -3.31,2.79 -4.34,4.77 c-1.03,1.98 -1.49,4.09 -1.36,6.32 c0.08000000000000006,1.7400000000000002 0.52,3.35 1.3,4.84 c0.2100000000000001,0.3700000000000002 0.4,0.7500000000000004 0.5900000000000004,1.15 c0.1900000000000001,0.3900000000000003 0.4,0.78 0.6500000000000006,1.15 c-0.3700000000000002,-0.6200000000000004 -0.7200000000000004,-1.26 -1.05,-1.92 c0.6600000000000007,1.2 1.51,2.26 2.54,3.19 c1.03,0.93 2.19,1.6900000000000008 3.47,2.26 c1.32,0.5800000000000004 2.71,0.9 4.15,0.9600000000000004 c1.45,0.06000000000000004 2.85,-0.13 4.22,-0.5900000000000004 c1.32,-0.4100000000000002 2.54,-1.03 3.66,-1.86 C85.79729492187505,44.72127914428711 86.74729492187498,43.74127914428709 87.52729492187495,42.63127914428708 z" id="svg_6"/>
	<path fill="#1B262C" d="M115.48729492187499,16.031279144287055 c3.18,-0.54 6.3100000000000005,-0.3100000000000002 9.39,0.6800000000000007 c3.08,0.99 5.75,2.6500000000000004 8.03,4.96 c1.86,1.86 3.29,4.02 4.3100000000000005,6.48 c1.01,2.46 1.5,5.01 1.46,7.66 c0,2.11 -0.34000000000000036,4.17 -1.02,6.17 s-1.6400000000000001,3.85 -2.88,5.55 c-2.03,2.73 -4.59,4.8 -7.69,6.23 c-3.1,1.4300000000000002 -6.32,2.04 -9.67,1.83 c-1.7400000000000002,-0.12000000000000002 -3.43,-0.4700000000000002 -5.08,-1.05 c-1.6500000000000008,-0.5800000000000004 -3.19,-1.34 -4.62,-2.29 c-1.4300000000000002,-0.9500000000000004 -2.72,-2.07 -3.88,-3.35 c-1.1600000000000001,-1.28 -2.13,-2.71 -2.91,-4.28 c-0.7400000000000004,-1.53 -1.29,-3.12 -1.6400000000000001,-4.77 c-0.3500000000000002,-1.6500000000000008 -0.4900000000000002,-3.3200000000000003 -0.4,-4.99 c0.08000000000000006,-1.6700000000000008 0.3600000000000002,-3.33 0.8400000000000004,-4.96 c0.4700000000000002,-1.6300000000000003 1.17,-3.17 2.08,-4.62 c0.2900000000000002,-0.54 0.6400000000000005,-1.08 1.05,-1.61 h0.06000000000000004 c1.53,-2.07 3.39,-3.74 5.58,-5.02 C110.67729492187505,17.351279144287105 113.00729492187497,16.49127914428709 115.48729492187499,16.031279144287055 zM128.87729492187498,42.63127914428708 c0.8700000000000004,-1.28 1.48,-2.67 1.83,-4.15 c0.3500000000000002,-1.49 0.4200000000000002,-3 0.2200000000000001,-4.53 c-0.25,-1.53 -0.7000000000000004,-2.87 -1.36,-4.03 c-0.8300000000000004,-1.49 -1.9,-2.77 -3.22,-3.84 c-1.32,-1.07 -2.81,-1.82 -4.46,-2.23 c-1.61,-0.45 -3.27,-0.56 -4.96,-0.3100000000000002 c-1.7000000000000002,0.25 -3.27,0.8300000000000004 -4.71,1.7400000000000002 c-1.86,1.2 -3.31,2.79 -4.34,4.77 c-1.03,1.98 -1.49,4.09 -1.36,6.32 c0.08000000000000006,1.7400000000000002 0.52,3.35 1.3,4.84 c0.2100000000000001,0.3700000000000002 0.4,0.7500000000000004 0.5900000000000004,1.15 c0.1900000000000001,0.3900000000000003 0.4,0.78 0.6500000000000006,1.15 c-0.3700000000000002,-0.6200000000000004 -0.7200000000000004,-1.26 -1.05,-1.92 c0.6600000000000007,1.2 1.51,2.26 2.54,3.19 c1.03,0.93 2.19,1.6900000000000008 3.47,2.26 c1.32,0.5800000000000004 2.71,0.9 4.15,0.9600000000000004 c1.45,0.06000000000000004 2.85,-0.13 4.22,-0.5900000000000004 c1.32,-0.4100000000000002 2.54,-1.03 3.66,-1.86 C127.14729492187496,44.72127914428711 128.097294921875,43.74127914428709 128.87729492187498,42.63127914428708 z" id="svg_7"/>
	<path fill="#1B262C" d="M180.15729492187495,55.591279144287114 c-1.07,0 -1.97,-0.3700000000000002 -2.7,-1.12 c-0.7200000000000004,-0.7400000000000004 -1.08,-1.6500000000000008 -1.08,-2.73 v-22.94 l-4.95,4.96 c-0.99,0.99 -2.11,1.7600000000000002 -3.37,2.29 c-1.26,0.54 -2.59,0.81 -3.99,0.81 c-1.4,0 -2.74,-0.27 -4.02,-0.81 c-1.28,-0.54 -2.39,-1.3 -3.34,-2.29 l-5.01,-5.02 v23 c0,1.08 -0.3800000000000002,1.98 -1.13,2.73 c-0.7500000000000004,0.7400000000000004 -1.6700000000000008,1.12 -2.75,1.12 c-1.08,0 -2,-0.3700000000000002 -2.75,-1.12 c-0.7500000000000004,-0.7400000000000004 -1.12,-1.6500000000000008 -1.12,-2.73 v-32.18 c0,-1.07 0.3700000000000002,-1.98 1.12,-2.73 s1.6500000000000008,-1.12 2.73,-1.12 c0.79,0 1.51,0.23 2.17,0.6800000000000007 v-0.06000000000000004 l0.5,0.4300000000000002 l11.04,11.1 c0.7400000000000004,0.6600000000000007 1.59,0.99 2.54,0.99 c0.91,0 1.7400000000000002,-0.3300000000000003 2.48,-0.99 l11.41,-11.47 h0.06000000000000004 c0.6600000000000007,-0.45 1.3800000000000001,-0.6800000000000007 2.17,-0.6800000000000007 c1.08,0 1.98,0.3700000000000002 2.73,1.12 s1.12,1.6500000000000008 1.12,2.73 v32.18 c0,1.08 -0.3700000000000002,1.98 -1.12,2.73 S181.227294921875,55.591279144287114 180.15729492187495,55.591279144287114 z" id="svg_8"/>
	<path fill="#1B262C" d="M229.62729492187498,35.681279144287146 c-0.04000000000000003,1.07 -0.45,1.98 -1.21,2.73 c-0.77,0.7400000000000004 -1.6900000000000008,1.1400000000000001 -2.7600000000000002,1.18 h-27.59 c0.17,0.5 0.3900000000000003,1.01 0.6800000000000007,1.55 c0.2100000000000001,0.4100000000000002 0.4100000000000002,0.81 0.6200000000000004,1.18 c0.2100000000000001,0.3700000000000002 0.4100000000000002,0.7400000000000004 0.6200000000000004,1.12 c-0.2100000000000001,-0.3300000000000003 -0.3900000000000003,-0.6500000000000006 -0.56,-0.9600000000000004 c-0.17,-0.3100000000000002 -0.3300000000000003,-0.6300000000000004 -0.5,-0.9600000000000004 c0.6600000000000007,1.2 1.51,2.27 2.54,3.22 c1.03,0.9500000000000004 2.19,1.7000000000000002 3.47,2.23 c1.36,0.5800000000000004 2.87,0.91 4.53,0.99 H209.727294921875 c1.07,0 1.97,0.3600000000000002 2.7,1.08 c0.7200000000000004,0.7200000000000004 1.08,1.62 1.08,2.7 c0,1.08 -0.3600000000000002,1.98 -1.08,2.73 c-0.7200000000000004,0.7400000000000004 -1.62,1.12 -2.7,1.12 c-0.25,0 -0.4900000000000002,0 -0.7100000000000004,0 c-0.23,0 -0.45,-0.020000000000000014 -0.6500000000000006,-0.06000000000000004 c-1.7400000000000002,-0.12000000000000002 -3.43,-0.4700000000000002 -5.08,-1.05 c-1.6500000000000008,-0.5800000000000004 -3.19,-1.33 -4.62,-2.26 c-1.4300000000000002,-0.93 -2.72,-2.04 -3.88,-3.3200000000000003 c-1.1600000000000001,-1.28 -2.13,-2.71 -2.91,-4.28 c-1.53,-3.1 -2.22,-6.38 -2.08,-9.83 c0.14,-3.45 1.13,-6.6400000000000015 2.95,-9.58 c0.17,-0.25 0.34000000000000036,-0.51 0.53,-0.78 c0.1900000000000001,-0.27 0.3800000000000002,-0.53 0.5900000000000004,-0.78 c1.53,-2.07 3.39,-3.75 5.58,-5.05 c2.19,-1.3 4.53,-2.18 7.01,-2.63 c3.18,-0.5 6.32,-0.25 9.42,0.7400000000000004 c3.1,0.99 5.77,2.6500000000000004 8,4.96 c1.82,1.86 3.23,3.9699999999999998 4.25,6.32 c1.01,2.36 1.52,4.84 1.52,7.44 v0.12000000000000002 V35.681279144287146 zM203.15729492187495,25.271279144287064 c-1.2,0.79 -2.23,1.75 -3.1,2.88 c-0.8700000000000004,1.1400000000000001 -1.53,2.37 -1.98,3.6900000000000004 h23.31 c-0.2100000000000001,-0.6200000000000004 -0.5,-1.28 -0.8700000000000004,-1.98 c-0.79,-1.49 -1.85,-2.7600000000000002 -3.19,-3.81 c-1.34,-1.05 -2.84,-1.81 -4.5,-2.26 c-1.61,-0.46 -3.27,-0.55 -4.96,-0.28 C206.17729492187505,23.771279144287064 204.607294921875,24.361279144287096 203.15729492187495,25.271279144287064 z" id="svg_9"/>
	<path fill="#1B262C" d="M254.087294921875,16.871279144287087 c0.7200000000000004,0.7200000000000004 1.08,1.6 1.08,2.64 c0,1.08 -0.3800000000000002,2 -1.15,2.7600000000000002 c-0.77,0.77 -1.6900000000000008,1.15 -2.7600000000000002,1.15 h-0.3100000000000002 c-1.61,0.08000000000000006 -3.13,0.46 -4.5600000000000005,1.12 c-1.4300000000000002,0.6600000000000007 -2.67,1.54 -3.72,2.63 c-1.05,1.1 -1.8800000000000003,2.37 -2.48,3.81 c-0.6000000000000004,1.45 -0.9,3 -0.9,4.65 v16.12 c0,1.08 -0.3800000000000002,1.98 -1.15,2.73 c-0.7600000000000005,0.7400000000000004 -1.6800000000000006,1.12 -2.7600000000000002,1.12 c-1.08,0 -1.98,-0.3700000000000002 -2.73,-1.12 s-1.12,-1.6500000000000008 -1.12,-2.73 V35.62127914428709 c0,-2.73 0.5,-5.28 1.52,-7.66 c1.01,-2.38 2.39,-4.46 4.12,-6.26 c1.7400000000000002,-1.8 3.7800000000000002,-3.23 6.14,-4.3100000000000005 c2.36,-1.07 4.88,-1.6500000000000008 7.5600000000000005,-1.7400000000000002 h0.3700000000000002 h0.06000000000000004 h0.12000000000000002 C252.487294921875,15.741279144287091 253.367294921875,16.14127914428707 254.087294921875,16.871279144287087 z" id="svg_10"/>
	<path fill="#1B262C" d="M278.05729492187504,15.661279144287164 c2.77,0 5.36,0.53 7.78,1.58 c2.42,1.05 4.53,2.48 6.32,4.28 c1.8,1.8 3.22,3.92 4.28,6.36 c1.05,2.44 1.58,5.02 1.58,7.75 v16.12 c0,1.08 -0.3700000000000002,1.98 -1.12,2.73 c-0.7400000000000004,0.7400000000000004 -1.6500000000000008,1.12 -2.73,1.12 c-1.08,0 -1.99,-0.3700000000000002 -2.7600000000000002,-1.12 c-0.7600000000000005,-0.7400000000000004 -1.15,-1.6500000000000008 -1.15,-2.73 v-7.44 h-12.21 v-0.06000000000000004 c-0.12000000000000002,0.04000000000000003 -0.3500000000000002,0.06000000000000004 -0.6800000000000007,0.06000000000000004 c-1.36,0 -2.67,0.2100000000000001 -3.91,0.6200000000000004 c-1.24,0.4100000000000002 -2.37,0.99 -3.38,1.7400000000000002 c-1.01,0.7400000000000004 -1.8900000000000001,1.6300000000000003 -2.63,2.67 c-0.7400000000000004,1.03 -1.3,2.17 -1.6700000000000008,3.41 c-0.04000000000000003,0.04000000000000003 -0.06000000000000004,0.08000000000000006 -0.06000000000000004,0.12000000000000002 s-0.020000000000000014,0.08000000000000006 -0.06000000000000004,0.12000000000000002 c-0.25,0.79 -0.7000000000000004,1.42 -1.37,1.8900000000000001 c-0.6600000000000007,0.4800000000000002 -1.4300000000000002,0.7100000000000004 -2.29,0.7100000000000004 c-1.08,0 -1.98,-0.3700000000000002 -2.73,-1.12 s-1.12,-1.6500000000000008 -1.12,-2.73 v-0.56 V35.62127914428709 c0,-2.44 0.4100000000000002,-4.73 1.24,-6.88 c0.99,-2.64 2.48,-5 4.46,-7.07 c1.86,-1.86 4,-3.33 6.42,-4.4 S275.28729492187495,15.661279144287164 278.05729492187504,15.661279144287164 zM290.26729492187496,36.55127914428715 v-0.93 c0,-2.15 -0.52,-4.13 -1.55,-5.95 c0,-0.04000000000000003 -0.010000000000000007,-0.07 -0.030000000000000027,-0.0900000000000001 c-0.020000000000000014,-0.020000000000000014 -0.030000000000000027,-0.05000000000000004 -0.030000000000000027,-0.0900000000000001 c-0.17,-0.25 -0.3300000000000003,-0.5 -0.5,-0.7400000000000004 c-0.17,-0.25 -0.3300000000000003,-0.4700000000000002 -0.5,-0.6800000000000007 c-1.12,-1.45 -2.5,-2.58 -4.15,-3.41 c-1.6500000000000008,-0.8300000000000004 -3.47,-1.24 -5.46,-1.24 s-3.81,0.45 -5.49,1.33 s-3.07,2.06 -4.18,3.5 c-0.79,1.03 -1.4,2.17 -1.83,3.41 c-0.4300000000000002,1.24 -0.6500000000000006,2.56 -0.6500000000000006,3.9699999999999998 v4.59 c1.61,-1.1600000000000001 3.39,-2.06 5.33,-2.7 c1.94,-0.6400000000000005 3.99,-0.9600000000000004 6.14,-0.9600000000000004 h0.6800000000000007 H290.26729492187496 z" id="svg_11"/>
	<path fill="#1B262C" d="M337.757294921875,15.661279144287164 c1.07,0 1.99,0.3800000000000002 2.7600000000000002,1.15 c0.7600000000000005,0.7600000000000005 1.15,1.6800000000000006 1.15,2.7600000000000002 v14.14 v0.99 v17.05 l-0.06000000000000004,0.06000000000000004 v0.25 v0.1900000000000001 v0.1900000000000001 c-0.04000000000000003,0.04000000000000003 -0.06000000000000004,0.1 -0.06000000000000004,0.1900000000000001 c0,0.04000000000000003 -0.010000000000000007,0.07 -0.030000000000000027,0.0900000000000001 c-0.020000000000000014,0.020000000000000014 -0.030000000000000027,0.05000000000000004 -0.030000000000000027,0.0900000000000001 s-0.020000000000000014,0.08000000000000006 -0.06000000000000004,0.12000000000000002 c0,0.12000000000000002 -0.020000000000000014,0.2100000000000001 -0.06000000000000004,0.25 c0,0.04000000000000003 -0.020000000000000014,0.08000000000000006 -0.06000000000000004,0.12000000000000002 c0,0.08000000000000006 -0.04000000000000003,0.17 -0.12000000000000002,0.25 v0.06000000000000004 c-0.04000000000000003,0.04000000000000003 -0.07,0.08000000000000006 -0.0900000000000001,0.12000000000000002 c-0.020000000000000014,0.04000000000000003 -0.05000000000000004,0.08000000000000006 -0.0900000000000001,0.12000000000000002 v0.06000000000000004 c-0.04000000000000003,0.04000000000000003 -0.07,0.08000000000000006 -0.0900000000000001,0.12000000000000002 c-0.020000000000000014,0.04000000000000003 -0.07,0.08000000000000006 -0.16000000000000014,0.12000000000000002 V54.22127914428711 l-0.25,0.25 l-0.12000000000000002,0.12000000000000002 l-0.12000000000000002,0.12000000000000002 c-0.08000000000000006,0.04000000000000003 -0.1900000000000001,0.12000000000000002 -0.3100000000000002,0.25 c-0.08000000000000006,0.04000000000000003 -0.13,0.07 -0.16000000000000014,0.0900000000000001 c-0.020000000000000014,0.020000000000000014 -0.07,0.05000000000000004 -0.16000000000000014,0.0900000000000001 h-0.06000000000000004 c-0.08000000000000006,0.08000000000000006 -0.17,0.12000000000000002 -0.25,0.12000000000000002 c-0.04000000000000003,0 -0.06000000000000004,0.020000000000000014 -0.06000000000000004,0.06000000000000004 c-0.08000000000000006,0 -0.13,0.010000000000000007 -0.1500000000000001,0.030000000000000027 c-0.020000000000000014,0.020000000000000014 -0.07,0.030000000000000027 -0.16000000000000014,0.030000000000000027 l-0.12000000000000002,0.06000000000000004 c-0.04000000000000003,0 -0.07,0.010000000000000007 -0.0900000000000001,0.030000000000000027 c-0.020000000000000014,0.020000000000000014 -0.07,0.030000000000000027 -0.16000000000000014,0.030000000000000027 h-0.12000000000000002 c-0.04000000000000003,0 -0.07,0.010000000000000007 -0.0900000000000001,0.030000000000000027 c-0.020000000000000014,0.020000000000000014 -0.07,0.030000000000000027 -0.16000000000000014,0.030000000000000027 h-0.12000000000000002 h-0.25 h-0.06000000000000004 h-0.06000000000000004 h-0.25 h-0.1900000000000001 c-0.04000000000000003,0 -0.07,-0.010000000000000007 -0.0900000000000001,-0.030000000000000027 c-0.020000000000000014,-0.020000000000000014 -0.05000000000000004,-0.030000000000000027 -0.0900000000000001,-0.030000000000000027 h-0.1900000000000001 c-0.04000000000000003,-0.04000000000000003 -0.1,-0.06000000000000004 -0.1900000000000001,-0.06000000000000004 c-0.04000000000000003,0 -0.07,-0.010000000000000007 -0.0900000000000001,-0.030000000000000027 c-0.020000000000000014,-0.020000000000000014 -0.05000000000000004,-0.030000000000000027 -0.0900000000000001,-0.030000000000000027 c-0.04000000000000003,0 -0.07,-0.010000000000000007 -0.0900000000000001,-0.030000000000000027 c-0.020000000000000014,-0.020000000000000014 -0.05000000000000004,-0.030000000000000027 -0.0900000000000001,-0.030000000000000027 s-0.06000000000000004,-0.010000000000000007 -0.06000000000000004,-0.030000000000000027 c0,-0.020000000000000014 -0.020000000000000014,-0.030000000000000027 -0.06000000000000004,-0.030000000000000027 l-0.25,-0.12000000000000002 l-0.06000000000000004,-0.06000000000000004 c-0.08000000000000006,0 -0.17,-0.04000000000000003 -0.25,-0.12000000000000002 l-0.06000000000000004,-0.06000000000000004 l-0.25,-0.12000000000000002 c0,-0.04000000000000003 -0.010000000000000007,-0.06000000000000004 -0.030000000000000027,-0.06000000000000004 c-0.020000000000000014,0 -0.030000000000000027,-0.020000000000000014 -0.030000000000000027,-0.06000000000000004 c-0.04000000000000003,0 -0.1,-0.04000000000000003 -0.1900000000000001,-0.12000000000000002 l-0.12000000000000002,-0.12000000000000002 l-0.06000000000000004,-0.06000000000000004 l-21.89,-24.61 v3.9699999999999998 v0.99 v17.05 c0,1.08 -0.3700000000000002,1.98 -1.12,2.73 s-1.6500000000000008,1.12 -2.73,1.12 c-1.08,0 -2,-0.3700000000000002 -2.7600000000000002,-1.12 s-1.15,-1.6500000000000008 -1.15,-2.73 v-17.05 v-0.99 v-14.14 v-0.12000000000000002 v-0.25 l0.06000000000000004,-0.06000000000000004 c0.08000000000000006,-0.9500000000000004 0.5,-1.78 1.24,-2.48 c0.79,-0.7000000000000004 1.71,-1.03 2.79,-0.99 c1.07,0.04000000000000003 1.96,0.4800000000000002 2.67,1.3 l21.89,24.55 v-6.82 v-0.99 v-14.14 c0,-1.07 0.3700000000000002,-1.99 1.12,-2.7600000000000002 C335.77729492187495,16.04127914428716 336.68729492187504,15.661279144287164 337.757294921875,15.661279144287164 z" id="svg_12"/>
	<path fill="#1B262C" d="M385.747294921875,37.171279144287155 c0,0.08000000000000006 -0.020000000000000014,0.1500000000000001 -0.06000000000000004,0.1900000000000001 c0,0.2100000000000001 -0.020000000000000014,0.46 -0.06000000000000004,0.7400000000000004 c-0.04000000000000003,0.2900000000000002 -0.1,0.6400000000000005 -0.1900000000000001,1.05 c-0.4100000000000002,2.3200000000000003 -1.21,4.47 -2.39,6.48 c-1.18,2 -2.63,3.74 -4.37,5.21 c-1.7400000000000002,1.47 -3.71,2.62 -5.92,3.47 s-4.54,1.27 -6.97,1.27 c-2.73,0 -5.3,-0.53 -7.72,-1.58 c-2.42,-1.05 -4.53,-2.48 -6.34,-4.28 c-1.81,-1.8 -3.25,-3.92 -4.3100000000000005,-6.36 c-1.06,-2.44 -1.59,-5.02 -1.59,-7.75 s0.53,-5.3100000000000005 1.59,-7.75 c1.06,-2.44 2.5,-4.5600000000000005 4.3100000000000005,-6.36 c1.81,-1.8 3.92,-3.22 6.34,-4.28 c2.42,-1.05 4.99,-1.58 7.72,-1.58 c2.02,0 3.95,0.2900000000000002 5.77,0.8700000000000004 c1.82,0.5800000000000004 3.51,1.36 5.08,2.36 l0.6800000000000007,0.4300000000000002 c0.91,0.5800000000000004 1.48,1.3900000000000001 1.71,2.42 c0.23,1.03 0.05000000000000004,2.01 -0.53,2.91 c-0.5800000000000004,0.91 -1.3900000000000001,1.49 -2.42,1.7400000000000002 c-1.03,0.25 -2.01,0.08000000000000006 -2.91,-0.5 l-1.49,-0.99 c-0.8700000000000004,-0.45 -1.8,-0.8200000000000004 -2.79,-1.08 c-0.99,-0.27 -2.03,-0.4 -3.1,-0.4 c-1.7000000000000002,0 -3.2800000000000002,0.3200000000000003 -4.74,0.9600000000000004 c-1.47,0.6400000000000005 -2.7600000000000002,1.51 -3.88,2.6 c-1.12,1.09 -1.99,2.39 -2.63,3.88 c-0.6400000000000005,1.49 -0.9600000000000004,3.08 -0.9600000000000004,4.77 c0,1.7000000000000002 0.3200000000000003,3.29 0.9600000000000004,4.77 c0.6400000000000005,1.49 1.52,2.7800000000000002 2.63,3.88 c1.12,1.1 2.41,1.96 3.88,2.6 c1.47,0.6400000000000005 3.05,0.9600000000000004 4.74,0.9600000000000004 c1.32,0 2.58,-0.2 3.7800000000000002,-0.5900000000000004 c1.2,-0.3900000000000003 2.29,-0.9400000000000004 3.29,-1.6400000000000001 c0.99,-0.7000000000000004 1.86,-1.54 2.6,-2.51 c0.7400000000000004,-0.97 1.34,-2.04 1.8,-3.19 h-5.33 c-1.08,0 -1.98,-0.3800000000000002 -2.73,-1.15 c-0.7400000000000004,-0.7600000000000005 -1.12,-1.6800000000000006 -1.12,-2.7600000000000002 s0.3700000000000002,-1.98 1.12,-2.73 c0.7400000000000004,-0.7400000000000004 1.6500000000000008,-1.12 2.73,-1.12 h9.61 c1.2,0.08000000000000006 2.2,0.5700000000000004 3.01,1.46 c0.81,0.8900000000000005 1.21,1.9300000000000002 1.21,3.13 v0.3700000000000002 V37.171279144287155 z" id="svg_13"/>
</g><g id="svg_14" class="">
	<path fill="#1B262C" d="M7.977294921875,-2.0636311340331304 h9.2 c14.2,0 27.6,3.7 27.6,20.7 c0,5.5 -3,11.9 -8.1,14.3 v0.2 c8.9,1.6 15.1,10.3 15.1,19.1 c0,15.1 -12.9,21.1 -26.2,21.1 h-17.6 V-2.0636311340331304 zM17.377294921874977,31.336368865966847 h2.4 c8.9,0 16.2,-1.8 16.2,-12.6 c0,-10.6 -7.2,-12.4 -16,-12.4 h-2.6 V31.336368865966847 zM17.377294921874977,64.93636886596676 h7.2 c8.7,0 17.8,-2.6 17.8,-13.3 c0,-10.6 -10.8,-12.8 -19.2,-12.8 h-5.8 V64.93636886596676 z" id="svg_15"/>
</g><rect x="141.727294921875" y="15.13637924194336" fill="#BBE1FA" width="35" height="41" id="svg_16" class=""/><circle fill="#3282B8" cx="164.227294921875" cy="35.63637924194336" r="20.5" id="svg_17" class=""/><rect x="163.727294921875" y="15.13637924194336" fill="#3282B8" width="22" height="41" id="svg_18" class=""/><rect x="143.727294921875" y="19.13637924194336" fill="#1B262C" width="8" height="33" id="svg_19" class=""/><rect x="177.727294921875" y="19.13637924194336" fill="#1B262C" width="8" height="33" id="svg_20" class=""/><circle fill="#1B262C" cx="147.727294921875" cy="35.63637924194336" r="4" id="svg_21" class=""/><circle fill="#1B262C" cx="147.727294921875" cy="35.63637924194336" r="4" id="svg_22" class=""/><circle fill="#1B262C" cx="181.727294921875" cy="35.63637924194336" r="4" id="svg_23" class=""/><circle fill="#1B262C" cx="181.727294921875" cy="35.63637924194336" r="4" id="svg_24" class=""/><path fill="#0F4C75" d="M146.02729492187495,25.028256683349582 c0.77,-0.3100000000000002 1.55,-0.28 2.3200000000000003,0 c1.31,0.5900000000000004 2.2,1.7200000000000002 3.23,2.6500000000000004 c3.04,2.74 6.22,5.28 9.78,7.3100000000000005 c2.04,1.1600000000000001 4.06,1.22 6.16,0.07 c4.29,-2.35 7.98,-5.46 11.49,-8.83 c0.52,-0.4900000000000002 0.99,-1.06 1.7400000000000002,-1.23 c0.7200000000000004,-0.17 1.32,-0.2200000000000001 2.13,0.010000000000000007 c0.91,0.2900000000000002 1.4,0.98 1.77,1.8 c0.2200000000000001,0.6600000000000007 0.3000000000000002,1.4 0.04000000000000003,2.09 c-1.02,2.1 -2.71,3.71 -4.2,5.44 c-3.2,3.72 -6.76,7.09 -10.63,10.12 c-1.1600000000000001,0.91 -2.43,1.57 -3.87,1.8800000000000003 c-0.93,0.17 -2.04,0.17 -2.8600000000000003,0 c-1.6700000000000008,-0.3200000000000003 -3.1,-1.13 -4.42,-2.18 c-5.19,-4.11 -9.92,-8.68 -13.79,-14.1 C143.57729492187502,28.188256683349664 143.987294921875,26.218256683349637 146.02729492187495,25.028256683349582 z" id="svg_25" class=""/><g id="svg_26" class="">
</g><g id="svg_27" class="">
</g><g id="svg_28" class="">
</g><g id="svg_29" class="">
</g><g id="svg_30" class="">
</g><g id="svg_31" class="">
</g><g id="svg_32" class="">
</g><g id="svg_33" class="">
</g><g id="svg_34" class="">
</g><g id="svg_35" class="">
</g><g id="svg_36" class="">
</g><g id="svg_37" class="">
</g><g id="svg_38" class="">
</g><g id="svg_39" class="">
</g><g id="svg_40" class="">
</g></g></svg>